<svg width="50" height="45" viewBox="0 0 50 45" xmlns="http://www.w3.org/2000/svg"><title>steam</title><path d="M34.339 10.943a4.67 4.67 0 1 0 9.338 0 4.67 4.67 0 0 0-9.338 0zm12.373-7.704c-4.255-4.255-11.153-4.255-15.408 0a10.845 10.845 0 0 0-3.08 6.147l-9.956 15.09a9.813 9.813 0 0 0-3.89 1.021L6.7 19.494a4.085 4.085 0 1 0-5.032 6.438l7.584 5.929a9.821 9.821 0 0 0 2.575 9.377c3.838 3.837 10.06 3.837 13.897 0a9.816 9.816 0 0 0 2.728-8.666l12.113-10.845a10.846 10.846 0 0 0 6.148-3.08c4.255-4.255 4.255-11.153 0-15.408zM18.775 40.84a6.551 6.551 0 0 1-6.552-6.551c0-.035.002-.069.003-.103l3.254 2.544a4.068 4.068 0 0 0 2.513.867 4.086 4.086 0 0 0 2.519-7.305l-3.088-2.414a6.552 6.552 0 1 1 1.35 12.963zm20.233-22.115a7.782 7.782 0 1 1 0-15.564 7.782 7.782 0 0 1 0 15.564z" fill="#FFF" fill-rule="evenodd"/></svg>