<svg width="90" height="80" viewBox="0 0 90 80" xmlns="http://www.w3.org/2000/svg"><title>warning + Path + Path</title><g fill="none" fill-rule="evenodd"><path d="M89.105 70.533L50.129 3.015c-2.26-3.913-7.916-3.913-10.175 0L.978 70.533c-2.26 3.912.57 8.816 5.088 8.816h77.95c4.52 0 7.348-4.904 5.089-8.816z" fill="#B88D28"/><path d="M45.041 70.184a4.633 4.633 0 0 1-4.628-4.629 4.633 4.633 0 0 1 4.628-4.628 4.633 4.633 0 0 1 4.629 4.628 4.633 4.633 0 0 1-4.629 4.629zM45.096 23.806a4.454 4.454 0 0 1 4.445 4.574l-.734 25.64a3.721 3.721 0 0 1-3.729 3.62 3.733 3.733 0 0 1-3.729-3.62l-.716-25.64c-.055-2.498 1.947-4.574 4.463-4.574z" fill="#1D1A13"/></g></svg>