<svg width="88" height="50" viewBox="0 0 88 50" xmlns="http://www.w3.org/2000/svg"><title>vk-social-network-logo</title><path d="M86.855 45.11a5.98 5.98 0 0 0-.296-.567c-1.515-2.729-4.41-6.078-8.683-10.048l-.09-.091-.046-.045-.046-.046h-.045c-1.94-1.848-3.168-3.092-3.682-3.728-.942-1.213-1.152-2.44-.638-3.683.363-.94 1.728-2.924 4.092-5.955a332.303 332.303 0 0 0 2.954-3.864c5.244-6.972 7.518-11.426 6.82-13.366l-.27-.454c-.183-.273-.652-.522-1.41-.75-.758-.227-1.727-.265-2.91-.113l-13.093.09c-.212-.075-.515-.068-.91.023l-.59.137-.228.114-.181.136c-.152.09-.319.25-.5.477a3.12 3.12 0 0 0-.454.796c-1.426 3.667-3.046 7.077-4.865 10.229a96.848 96.848 0 0 1-3.092 4.887c-.94 1.379-1.728 2.395-2.364 3.046-.637.652-1.211 1.174-1.728 1.568-.515.395-.909.561-1.181.5-.273-.06-.53-.121-.774-.182a3.023 3.023 0 0 1-1.022-1.113c-.258-.47-.432-1.061-.523-1.774a19.547 19.547 0 0 1-.16-1.84 38.465 38.465 0 0 1 .024-2.183c.031-.94.045-1.576.045-1.91 0-1.152.023-2.402.068-3.75.046-1.35.083-2.418.114-3.205.03-.788.045-1.622.045-2.501 0-.879-.053-1.568-.159-2.069a7.077 7.077 0 0 0-.476-1.455 2.45 2.45 0 0 0-.932-1.09c-.41-.258-.918-.463-1.523-.615-1.607-.363-3.652-.56-6.138-.59-5.637-.06-9.26.303-10.866 1.091a6.124 6.124 0 0 0-1.727 1.364c-.546.667-.622 1.03-.228 1.09 1.819.273 3.106.925 3.864 1.955l.273.546c.213.394.425 1.092.637 2.091a21.1 21.1 0 0 1 .41 3.318c.15 2.213.15 4.108 0 5.683-.153 1.577-.296 2.804-.433 3.683s-.341 1.591-.614 2.137c-.273.545-.454.879-.545 1-.091.12-.167.197-.227.227a3.406 3.406 0 0 1-1.228.228c-.425 0-.94-.213-1.546-.637-.606-.425-1.234-1.008-1.886-1.75-.652-.743-1.387-1.781-2.206-3.115-.818-1.333-1.666-2.91-2.545-4.728l-.728-1.318a113.41 113.41 0 0 1-1.863-3.705 71.44 71.44 0 0 1-2.092-4.706c-.242-.637-.606-1.121-1.09-1.455l-.228-.137c-.151-.12-.394-.25-.727-.386a4.825 4.825 0 0 0-1.046-.295l-12.457.09c-1.273 0-2.136.288-2.591.864l-.182.273C.046 3.686 0 3.928 0 4.262c0 .333.09.742.273 1.227a150.036 150.036 0 0 0 5.933 12.366c2.136 3.97 3.993 7.168 5.568 9.592a113.263 113.263 0 0 0 4.82 6.865c1.636 2.152 2.72 3.53 3.25 4.137.53.607.947 1.06 1.25 1.364l1.137 1.09c.728.728 1.796 1.6 3.205 2.614a54.672 54.672 0 0 0 4.683 3.002c1.713.984 3.705 1.787 5.979 2.409 2.273.621 4.485.871 6.637.75h5.228c1.06-.091 1.864-.424 2.41-1l.181-.228c.122-.18.236-.462.34-.84.107-.379.16-.796.16-1.25-.031-1.303.068-2.477.295-3.523.226-1.045.485-1.833.774-2.364a5.81 5.81 0 0 1 .977-1.34c.363-.364.622-.584.774-.66.15-.076.271-.128.362-.159.728-.242 1.584-.008 2.57.705.985.713 1.909 1.592 2.773 2.637a80.777 80.777 0 0 0 3.114 3.523c1.213 1.304 2.273 2.273 3.182 2.91l.91.545c.606.365 1.394.698 2.364 1.001.969.303 1.817.379 2.546.227l11.638-.181c1.15 0 2.046-.19 2.682-.57.636-.378 1.015-.795 1.137-1.25.121-.454.128-.97.023-1.546-.108-.575-.214-.977-.32-1.204z" fill="#FFF" fill-rule="evenodd"/></svg>